<?xml version="1.0" encoding="UTF-8"?>
<svg version="1.1" xmlns="http://www.w3.org/2000/svg" width="150" height="117">
<path d="M0 0 C0.95310059 0.01047363 1.90620117 0.02094727 2.88818359 0.03173828 C4.43505859 0.04140625 4.43505859 0.04140625 6.01318359 0.05126953 C7.63353516 0.07640625 7.63353516 0.07640625 9.28662109 0.10205078 C10.37458984 0.11107422 11.46255859 0.12009766 12.58349609 0.12939453 C15.27642261 0.15301669 17.96891365 0.18595522 20.66162109 0.22705078 C20.12348399 5.91756441 19.52160779 11.57570962 18.66162109 17.22705078 C20.18529297 16.62957031 20.18529297 16.62957031 21.73974609 16.02001953 C41.88263066 8.22705078 41.88263066 8.22705078 50.66162109 8.22705078 C50.80599609 7.09267578 50.95037109 5.95830078 51.09912109 4.78955078 C51.66162109 1.22705078 51.66162109 1.22705078 52.66162109 0.22705078 C55.10992536 0.13861285 57.52982708 0.11176326 59.97802734 0.12939453 C61.07460915 0.13151695 61.07460915 0.13151695 62.19334412 0.13368225 C64.53697742 0.1392967 66.88051649 0.15185156 69.22412109 0.16455078 C70.80940618 0.16956392 72.39469275 0.17412715 73.97998047 0.17822266 C77.87389719 0.18927081 81.76774315 0.20654506 85.66162109 0.22705078 C85.33162109 1.21705078 85.00162109 2.20705078 84.66162109 3.22705078 C82.09912109 4.41455078 82.09912109 4.41455078 79.66162109 5.22705078 C80.84498047 5.45779297 82.02833984 5.68853516 83.24755859 5.92626953 C95.2238271 8.35877091 107.26666762 10.88391966 114.91162109 21.28955078 C118.81110597 27.83511468 118.69759034 35.62127666 117.04833984 42.95361328 C112.25166296 56.26597645 100.46185341 67.0157977 88.66162109 74.22705078 C90.10500455 70.76293049 91.86948338 69.04449816 94.78662109 66.72705078 C103.1161331 59.48574921 109.1894766 50.30237039 110.66162109 39.22705078 C110.89068355 33.4067821 109.14320982 27.87559861 105.66162109 23.22705078 C96.80425427 15.23516471 85.14626823 12.75031986 73.66162109 11.22705078 C73.55849609 12.23767578 73.45537109 13.24830078 73.34912109 14.28955078 C72.52386474 21.00082668 71.02070029 27.60892599 69.66162109 34.22705078 C82.53162109 34.72205078 82.53162109 34.72205078 95.66162109 35.22705078 C94.53467 46.49656171 94.53467 46.49656171 93.32177734 51.78564453 C93.06332031 52.91292969 92.80486328 54.04021484 92.53857422 55.20166016 C92.13541992 56.91579102 92.13541992 56.91579102 91.72412109 58.66455078 C91.45921875 59.834375 91.19431641 61.00419922 90.92138672 62.20947266 C90.66164063 63.32773438 90.40189453 64.44599609 90.13427734 65.59814453 C89.78248413 67.11299438 89.78248413 67.11299438 89.42358398 68.65844727 C88.66162109 71.22705078 88.66162109 71.22705078 86.66162109 74.22705078 C84.32324219 74.56762695 84.32324219 74.56762695 81.43505859 74.52001953 C80.40380859 74.51035156 79.37255859 74.50068359 78.31005859 74.49072266 C76.68970703 74.45301758 76.68970703 74.45301758 75.03662109 74.41455078 C73.94865234 74.40101562 72.86068359 74.38748047 71.73974609 74.37353516 C69.04654701 74.33809833 66.35432735 74.28869409 63.66162109 74.22705078 C64.19254305 66.86869409 65.50033548 59.892591 67.22412109 52.72705078 C67.68556899 50.77956268 68.14529508 48.83166554 68.60302734 46.88330078 C68.80613525 46.03574219 69.00924316 45.18818359 69.21850586 44.31494141 C69.73082344 42.25671237 69.73082344 42.25671237 69.66162109 40.22705078 C56.79162109 39.73205078 56.79162109 39.73205078 43.66162109 39.22705078 C44.78662109 29.10205078 44.78662109 29.10205078 45.63427734 25.62939453 C45.81152344 24.89140625 45.98876953 24.15341797 46.17138672 23.39306641 C46.35378906 22.65765625 46.53619141 21.92224609 46.72412109 21.16455078 C46.91039063 20.39433594 47.09666016 19.62412109 47.28857422 18.83056641 C47.74132315 16.96152593 48.20075222 15.09410562 48.66162109 13.22705078 C41.6892356 13.7908363 35.40795378 15.26514327 28.72412109 17.28955078 C26.86150121 17.84515821 24.99824981 18.39865433 23.13427734 18.94970703 C21.91623413 19.31721069 21.91623413 19.31721069 20.67358398 19.69213867 C18.66162109 20.22705078 18.66162109 20.22705078 16.66162109 20.22705078 C16.52884766 21.05849609 16.39607422 21.88994141 16.25927734 22.74658203 C16.08267578 23.83326172 15.90607422 24.91994141 15.72412109 26.03955078 C15.55009766 27.11849609 15.37607422 28.19744141 15.19677734 29.30908203 C14.66162109 32.22705078 14.66162109 32.22705078 13.66162109 35.22705078 C22.57162109 35.22705078 31.48162109 35.22705078 40.66162109 35.22705078 C39.81451053 42.85104583 38.50865267 49.83069326 36.70532227 57.24121094 C36.2189206 59.24851239 35.74755916 61.25898615 35.27685547 63.27001953 C34.97199219 64.53458984 34.66712891 65.79916016 34.35302734 67.10205078 C34.076604 68.25447266 33.80018066 69.40689453 33.51538086 70.59423828 C33.23364014 71.46306641 32.95189941 72.33189453 32.66162109 73.22705078 C29.70351634 74.70610316 26.70690559 74.34895981 23.46630859 74.32470703 C22.75886505 74.32329208 22.05142151 74.32187714 21.32254028 74.32041931 C19.06052441 74.31481679 16.79860711 74.30226396 14.53662109 74.28955078 C13.00407044 74.2845361 11.47151823 74.27997314 9.93896484 74.27587891 C6.17981221 74.26484655 2.42073337 74.2475803 -1.33837891 74.22705078 C-0.84337891 72.74205078 -0.84337891 72.74205078 -0.33837891 71.22705078 C1.40380859 70.37548828 1.40380859 70.37548828 3.53662109 69.60205078 C5.83957671 68.48745305 7.31410328 67.76248564 8.71630859 65.60205078 C9.5646188 63.1619675 10.122144 60.75645536 10.66162109 58.22705078 C11.01301993 56.69676555 11.36603058 55.16684998 11.72021484 53.63720703 C12.74073424 49.17529883 13.71017358 44.70416674 14.66162109 40.22705078 C4.01914376 39.07753081 4.01914376 39.07753081 -6.06884766 41.62158203 C-8.17999748 43.69059314 -9.73410454 45.74452403 -11.33837891 48.22705078 C-11.98162109 49.12939453 -12.62486328 50.03173828 -13.28759766 50.96142578 C-18.47442229 58.57858812 -21.60875121 65.90026681 -20.33837891 75.22705078 C-18.44396616 81.4434471 -14.71218571 85.68999435 -9.33837891 89.22705078 C-5.14103887 91.44625252 -0.97128522 93.17078997 3.66162109 94.22705078 C3.71769531 93.26605469 3.71769531 93.26605469 3.77490234 92.28564453 C4.20362587 86.64498795 4.99528651 82.2397598 7.66162109 77.22705078 C10.3234033 75.89615968 12.34901505 76.11436085 15.32568359 76.12939453 C17.00791016 76.13422852 17.00791016 76.13422852 18.72412109 76.13916016 C19.89974609 76.14753906 21.07537109 76.15591797 22.28662109 76.16455078 C23.46998047 76.1690625 24.65333984 76.17357422 25.87255859 76.17822266 C28.80229616 76.19003611 31.73193382 76.20650821 34.66162109 76.22705078 C34.76708252 75.6840332 34.87254395 75.14101562 34.98120117 74.58154297 C38.41156402 56.98860229 38.41156402 56.98860229 40.22412109 49.10205078 C40.43166016 48.19197266 40.63919922 47.28189453 40.85302734 46.34423828 C41.66162109 44.22705078 41.66162109 44.22705078 44.66162109 42.22705078 C46.83813477 42 46.83813477 42 49.32958984 42.03173828 C50.66860352 42.04140625 50.66860352 42.04140625 52.03466797 42.05126953 C52.9634375 42.06802734 53.89220703 42.08478516 54.84912109 42.10205078 C55.78949219 42.11107422 56.72986328 42.12009766 57.69873047 42.12939453 C60.01995077 42.15296022 62.34065753 42.18585962 64.66162109 42.22705078 C66.52612455 44.92340963 66.67081763 46.14950033 66.27783203 49.46337891 C65.98682617 50.71570312 65.69582031 51.96802734 65.39599609 53.25830078 C65.1658078 54.26769714 65.1658078 54.26769714 64.93096924 55.29748535 C64.60433789 56.71773265 64.2710711 58.13646806 63.93164062 59.55371094 C63.41416469 61.71642022 62.91704051 63.88302283 62.42333984 66.05126953 C59.97886008 76.5925728 59.97886008 76.5925728 57.66162109 81.22705078 C48.75162109 81.22705078 39.84162109 81.22705078 30.66162109 81.22705078 C29.67162109 86.17705078 28.68162109 91.12705078 27.66162109 96.22705078 C51.12050752 93.06592424 72.10466556 87.07926677 92.66162109 75.22705078 C93.98812663 74.54689985 95.31760396 73.87190749 96.66162109 73.22705078 C95.1961833 77.83122767 91.47525485 79.39902847 87.47412109 81.53955078 C86.75579102 81.93053955 86.03746094 82.32152832 85.29736328 82.72436523 C83.09452841 83.91011674 80.88094616 85.0725002 78.66162109 86.22705078 C77.72165283 86.72156738 77.72165283 86.72156738 76.76269531 87.22607422 C61.03559572 95.3916563 44.11149858 99.6502554 26.66162109 102.22705078 C26.37158203 103.49162109 26.37158203 103.49162109 26.07568359 104.78173828 C25.81529297 105.87744141 25.55490234 106.97314453 25.28662109 108.10205078 C24.90376953 109.73787109 24.90376953 109.73787109 24.51318359 111.40673828 C23.66162109 114.22705078 23.66162109 114.22705078 21.66162109 116.22705078 C19.41503906 116.45410156 19.41503906 116.45410156 16.65380859 116.42236328 C15.17460938 116.41269531 15.17460938 116.41269531 13.66552734 116.40283203 C12.11671875 116.37769531 12.11671875 116.37769531 10.53662109 116.35205078 C8.97621094 116.33851562 8.97621094 116.33851562 7.38427734 116.32470703 C4.80983017 116.30108825 2.23583897 116.26815227 -0.33837891 116.22705078 C-1.26347413 112.19268983 -1.21843009 109.86720434 0.09912109 105.91455078 C0.5303125 104.59003906 0.5303125 104.59003906 0.97021484 103.23876953 C1.19837891 102.57490234 1.42654297 101.91103516 1.66162109 101.22705078 C0.58912109 101.16517578 -0.48337891 101.10330078 -1.58837891 101.03955078 C-11.33163037 99.79352218 -20.44783554 95.31772749 -26.61181641 87.64111328 C-30.2052914 82.21267233 -30.92102149 76.11542337 -29.96728516 69.75048828 C-26.97727084 58.05043225 -19.18880018 49.09049638 -10.33837891 41.22705078 C-9.34837891 40.73205078 -9.34837891 40.73205078 -8.33837891 40.22705078 C-9.82337891 39.73205078 -9.82337891 39.73205078 -11.33837891 39.22705078 C-10.7813863 31.04997543 -9.19704906 23.2129008 -7.40087891 15.22705078 C-7.13597656 14.00115234 -6.87107422 12.77525391 -6.59814453 11.51220703 C-6.33839844 10.34560547 -6.07865234 9.17900391 -5.81103516 7.97705078 C-5.57650635 6.92001953 -5.34197754 5.86298828 -5.1003418 4.77392578 C-4.13606645 1.55081768 -3.44108808 0.3341211 0 0 Z " fill="#1299DE" transform="translate(31.33837890625,0.77294921875)"/>
<path d="M0 0 C1.39120471 0.00015906 2.78241534 0.00585033 4.17358398 0.01586914 C4.90463852 0.01728409 5.63569305 0.01869904 6.38890076 0.02015686 C8.73253406 0.02577131 11.07607313 0.03832617 13.41967773 0.05102539 C15.00496282 0.05603853 16.59024939 0.06060176 18.17553711 0.06469727 C22.06945383 0.07574542 25.96329979 0.09301967 29.85717773 0.11352539 C29.52717773 1.10352539 29.19717773 2.09352539 28.85717773 3.11352539 C26.29467773 4.30102539 26.29467773 4.30102539 23.85717773 5.11352539 C25.04053711 5.34426758 26.22389648 5.57500977 27.44311523 5.81274414 C39.41938374 8.24524552 51.46222426 10.77039427 59.10717773 21.17602539 C63.00666261 27.72158929 62.89314698 35.50775127 61.24389648 42.84008789 C56.4472196 56.15245106 44.65741005 66.90227231 32.85717773 74.11352539 C34.30056119 70.6494051 36.06504002 68.93097277 38.98217773 66.61352539 C47.31168974 59.37222382 53.38503324 50.188845 54.85717773 39.11352539 C55.08624019 33.29325671 53.33876646 27.76207322 49.85717773 23.11352539 C40.99981091 15.12163932 29.34182487 12.63679447 17.85717773 11.11352539 C17.75405273 12.12415039 17.65092773 13.13477539 17.54467773 14.17602539 C16.71942139 20.88730129 15.21625693 27.4954006 13.85717773 34.11352539 C26.72717773 34.60852539 26.72717773 34.60852539 39.85717773 35.11352539 C38.73022664 46.38303632 38.73022664 46.38303632 37.51733398 51.67211914 C37.25887695 52.7994043 37.00041992 53.92668945 36.73413086 55.08813477 C36.33097656 56.80226563 36.33097656 56.80226563 35.91967773 58.55102539 C35.65477539 59.72084961 35.38987305 60.89067383 35.11694336 62.09594727 C34.85719727 63.21420898 34.59745117 64.3324707 34.32983398 65.48461914 C33.97804077 66.99946899 33.97804077 66.99946899 33.61914062 68.54492188 C32.85717773 71.11352539 32.85717773 71.11352539 30.85717773 74.11352539 C28.51879883 74.45410156 28.51879883 74.45410156 25.63061523 74.40649414 C24.59936523 74.39682617 23.56811523 74.3871582 22.50561523 74.37719727 C20.88526367 74.33949219 20.88526367 74.33949219 19.23217773 74.30102539 C18.14420898 74.28749023 17.05624023 74.27395508 15.93530273 74.26000977 C13.24210365 74.22457294 10.54988399 74.1751687 7.85717773 74.11352539 C8.38809969 66.7551687 9.69589212 59.77906561 11.41967773 52.61352539 C11.88112563 50.66603729 12.34085172 48.71814015 12.79858398 46.76977539 C13.00169189 45.9222168 13.2047998 45.0746582 13.4140625 44.20141602 C13.92638008 42.14318698 13.92638008 42.14318698 13.85717773 40.11352539 C0.98717773 39.61852539 0.98717773 39.61852539 -12.14282227 39.11352539 C-11.01782227 28.98852539 -11.01782227 28.98852539 -10.17016602 25.51586914 C-9.99291992 24.77788086 -9.81567383 24.03989258 -9.63305664 23.27954102 C-9.4506543 22.54413086 -9.26825195 21.8087207 -9.08032227 21.05102539 C-8.89405273 20.28081055 -8.7077832 19.5105957 -8.51586914 18.71704102 C-8.06312021 16.84800054 -7.60369114 14.98058023 -7.14282227 13.11352539 C-14.11520776 13.67731091 -20.39648958 15.15161788 -27.08032227 17.17602539 C-28.94294215 17.73163282 -30.80619355 18.28512894 -32.67016602 18.83618164 C-33.88820923 19.2036853 -33.88820923 19.2036853 -35.13085938 19.57861328 C-37.14282227 20.11352539 -37.14282227 20.11352539 -39.14282227 20.11352539 C-39.47282227 21.10352539 -39.80282227 22.09352539 -40.14282227 23.11352539 C-39.81282227 20.80352539 -39.48282227 18.49352539 -39.14282227 16.11352539 C-38.48282227 16.44352539 -37.82282227 16.77352539 -37.14282227 17.11352539 C-34.63720875 16.26436759 -32.21726314 15.35335246 -29.76782227 14.36352539 C-13.73977137 8.11352539 -13.73977137 8.11352539 -5.14282227 8.11352539 C-4.99844727 6.97915039 -4.85407227 5.84477539 -4.70532227 4.67602539 C-3.98975802 0.1441185 -3.98975802 0.1441185 0 0 Z " fill="#ED8F26" transform="translate(87.142822265625,0.886474609375)"/>
<path d="M0 0 C0.89267578 0.00644531 1.78535156 0.01289062 2.70507812 0.01953125 C3.63384766 0.03628906 4.56261719 0.05304687 5.51953125 0.0703125 C6.45990234 0.07933594 7.40027344 0.08835938 8.36914062 0.09765625 C10.69036093 0.12122194 13.01106769 0.15412134 15.33203125 0.1953125 C17.19653471 2.89167135 17.34122779 4.11776204 16.94824219 7.43164062 C16.65723633 8.68396484 16.36623047 9.93628906 16.06640625 11.2265625 C15.83621796 12.23595886 15.83621796 12.23595886 15.60137939 13.26574707 C15.27474804 14.68599437 14.94148126 16.10472977 14.60205078 17.52197266 C14.08457485 19.68468194 13.58745067 21.85128455 13.09375 24.01953125 C10.64927024 34.56083452 10.64927024 34.56083452 8.33203125 39.1953125 C-0.57796875 39.1953125 -9.48796875 39.1953125 -18.66796875 39.1953125 C-19.65796875 44.1453125 -20.64796875 49.0953125 -21.66796875 54.1953125 C1.79091768 51.03418596 22.77507572 45.04752849 43.33203125 33.1953125 C44.65853679 32.51516157 45.98801412 31.8401692 47.33203125 31.1953125 C45.86659346 35.79948939 42.14566501 37.36729019 38.14453125 39.5078125 C37.42620117 39.89880127 36.70787109 40.28979004 35.96777344 40.69262695 C33.76493856 41.87837846 31.55135632 43.04076192 29.33203125 44.1953125 C28.70538574 44.52499023 28.07874023 44.85466797 27.43310547 45.19433594 C11.70600587 53.35991802 -5.21809127 57.61851712 -22.66796875 60.1953125 C-22.95800781 61.45988281 -22.95800781 61.45988281 -23.25390625 62.75 C-23.51429687 63.84570312 -23.7746875 64.94140625 -24.04296875 66.0703125 C-24.42582031 67.70613281 -24.42582031 67.70613281 -24.81640625 69.375 C-25.66796875 72.1953125 -25.66796875 72.1953125 -27.66796875 74.1953125 C-29.91455078 74.42236328 -29.91455078 74.42236328 -32.67578125 74.390625 C-34.15498047 74.38095703 -34.15498047 74.38095703 -35.6640625 74.37109375 C-37.21287109 74.34595703 -37.21287109 74.34595703 -38.79296875 74.3203125 C-40.35337891 74.30677734 -40.35337891 74.30677734 -41.9453125 74.29296875 C-44.51975967 74.26934997 -47.09375087 74.23641399 -49.66796875 74.1953125 C-50.75777489 69.60339962 -50.18515727 66.2946637 -48.91796875 61.8203125 C-47.76262518 57.55030559 -46.64571867 53.31089714 -45.87109375 48.953125 C-45.75088867 48.27942871 -45.63068359 47.60573242 -45.50683594 46.91162109 C-45.18506058 45.04448946 -44.87918913 43.17463749 -44.57421875 41.3046875 C-43.5277958 37.71437426 -42.57577558 36.49942667 -39.66796875 34.1953125 C-36.91894531 33.74121094 -36.91894531 33.74121094 -33.80859375 33.8046875 C-32.69355469 33.81757812 -31.57851563 33.83046875 -30.4296875 33.84375 C-28.69138672 33.89402344 -28.69138672 33.89402344 -26.91796875 33.9453125 C-25.15646484 33.97238281 -25.15646484 33.97238281 -23.359375 34 C-20.46141535 34.0471213 -17.56510457 34.11289945 -14.66796875 34.1953125 C-14.56250732 33.65229492 -14.4570459 33.10927734 -14.34838867 32.54980469 C-10.91802582 14.95686401 -10.91802582 14.95686401 -9.10546875 7.0703125 C-8.89792969 6.16023438 -8.69039062 5.25015625 -8.4765625 4.3125 C-6.88528845 0.14597569 -3.9682712 -0.05055123 0 0 Z " fill="#71BD3C" transform="translate(80.66796875,42.8046875)"/>
<path d="M0 0 C0.33 0.99 0.66 1.98 1 3 C1.63164063 2.96970703 2.26328125 2.93941406 2.9140625 2.90820312 C16.16662594 2.28758596 29.37599301 1.88052414 42.64453125 2.03710938 C43.59714844 2.04548828 44.54976562 2.05386719 45.53125 2.0625 C46.37236328 2.07410156 47.21347656 2.08570313 48.08007812 2.09765625 C50.00884047 2.21458403 50.00884047 2.21458403 51 1 C42.75 1 34.5 1 26 1 C26 0.67 26 0.34 26 0 C34.58 0 43.16 0 52 0 C50.87304891 11.26951093 50.87304891 11.26951093 49.66015625 16.55859375 C49.40169922 17.68587891 49.14324219 18.81316406 48.87695312 19.97460938 C48.47379883 21.68874023 48.47379883 21.68874023 48.0625 23.4375 C47.79759766 24.60732422 47.53269531 25.77714844 47.25976562 26.98242188 C47.00001953 28.10068359 46.74027344 29.21894531 46.47265625 30.37109375 C46.12086304 31.8859436 46.12086304 31.8859436 45.76196289 33.43139648 C45 36 45 36 43 39 C40.66162109 39.34057617 40.66162109 39.34057617 37.7734375 39.29296875 C36.7421875 39.28330078 35.7109375 39.27363281 34.6484375 39.26367188 C33.56820312 39.23853516 32.48796875 39.21339844 31.375 39.1875 C30.28703125 39.17396484 29.1990625 39.16042969 28.078125 39.14648438 C25.38492591 39.11104754 22.69270626 39.06164331 20 39 C20.53092196 31.64164331 21.83871438 24.66554022 23.5625 17.5 C24.0239479 15.5525119 24.48367398 13.60461476 24.94140625 11.65625 C25.14451416 10.80869141 25.34762207 9.96113281 25.55688477 9.08789062 C26.06920234 7.02966159 26.06920234 7.02966159 26 5 C13.13 4.505 13.13 4.505 0 4 C0 2.68 0 1.36 0 0 Z " fill="#ED912B" transform="translate(75,36)"/>
<path d="M0 0 C0.89267578 0.00644531 1.78535156 0.01289062 2.70507812 0.01953125 C4.09823242 0.04466797 4.09823242 0.04466797 5.51953125 0.0703125 C6.45990234 0.07933594 7.40027344 0.08835938 8.36914062 0.09765625 C10.69036093 0.12122194 13.01106769 0.15412134 15.33203125 0.1953125 C17.20919407 2.90064785 17.34129475 4.1199313 16.93237305 7.44750977 C16.48631714 9.33554321 16.48631714 9.33554321 16.03125 11.26171875 C15.87541946 11.93702133 15.71958893 12.61232391 15.55903625 13.30809021 C15.05875556 15.46125588 14.53928834 17.60927474 14.01953125 19.7578125 C13.6804053 21.20739384 13.34250082 22.65726153 13.00585938 24.10742188 C10.6018474 34.38586405 10.6018474 34.38586405 9.33203125 38.1953125 C0.09203125 38.1953125 -9.14796875 38.1953125 -18.66796875 38.1953125 C-17.67796875 37.5353125 -16.68796875 36.8753125 -15.66796875 36.1953125 C-14.87974401 33.65081516 -14.26680119 31.23098763 -13.73046875 28.6328125 C-13.48115601 27.51217407 -13.48115601 27.51217407 -13.22680664 26.36889648 C-12.69564999 23.98006374 -12.17999976 21.58831295 -11.66796875 19.1953125 C-10.99416832 16.04627522 -10.30480479 12.9012653 -9.60546875 9.7578125 C-9.38032593 8.66714478 -9.38032593 8.66714478 -9.15063477 7.55444336 C-7.84260189 1.68618007 -5.98747645 -0.07627359 0 0 Z " fill="#71BD3A" transform="translate(80.66796875,42.8046875)"/>
<path d="M0 0 C0.33 0 0.66 0 1 0 C1 1.65 1 3.3 1 5 C2.65 5 4.3 5 6 5 C6.33 5.99 6.66 6.98 7 8 C6.57589844 8.37769531 6.15179687 8.75539063 5.71484375 9.14453125 C-2.49308835 16.84735984 -8.73045587 25.97242713 -9.375 37.4375 C-9.20997912 43.14528117 -7.27936505 47.44309568 -3.4921875 51.69140625 C0.22974881 55.14501692 4.20073489 57.24292638 8.88671875 59.140625 C10.98545273 59.99408429 12.98631361 60.96361061 15 62 C14.34 63.98 13.68 65.96 13 68 C3.6476001 67.46043847 -5.75874216 64.16172095 -12.6015625 57.5859375 C-17.52358686 52.00397692 -19.25790648 46.46807451 -19 39 C-17.08539614 26.22253843 -8.34795217 16.30549315 1 8 C1.66 7.67 2.32 7.34 3 7 C2.01 6.67 1.02 6.34 0 6 C0 4.02 0 2.04 0 0 Z " fill="#27A1E1" transform="translate(20,34)"/>
<path d="M0 0 C13.01962492 1.46374481 27.4397766 3.4788849 36.62890625 13.8359375 C41.64278688 20.60681904 41.64418149 26.84036775 41 35 C37.87638561 48.88715187 25.28720948 60.60136695 13.6875 67.96875 C13.130625 68.3090625 12.57375 68.649375 12 69 C13.44338345 65.53587971 15.20786229 63.81744738 18.125 61.5 C26.45451201 54.25869843 32.52785551 45.07531961 34 34 C34.22906245 28.17973132 32.48158873 22.64854783 29 18 C20.14263318 10.00811393 8.48464714 7.52326908 -3 6 C-3 5.67 -3 5.34 -3 5 C-0.36 5 2.28 5 5 5 C5 4.34 5 3.68 5 3 C3.35 2.67 1.7 2.34 0 2 C0 1.34 0 0.68 0 0 Z " fill="#EF9C3F" transform="translate(108,6)"/>
<path d="M0 0 C0 0.99 0 1.98 0 3 C-17.57212663 16.94412921 -41.82849889 25.05775575 -63.79736328 27.97607422 C-65.54694116 28.22699431 -67.27746626 28.60394297 -69 29 C-69.66 29.99 -70.32 30.98 -71 32 C-70.25 24.375 -70.25 24.375 -68 21 C-68 21.66 -68 22.32 -68 23 C-43.733399 19.80086611 -20.5745155 13.71634366 0 0 Z " fill="#41ABDD" transform="translate(127,74)"/>
<path d="M0 0 C-0.60884033 0.13575439 -1.21768066 0.27150879 -1.8449707 0.41137695 C-8.56946794 1.91454477 -15.28718243 3.44551724 -22 5 C-23.27875 5.29519531 -24.5575 5.59039062 -25.875 5.89453125 C-27.3290625 6.25611328 -27.3290625 6.25611328 -28.8125 6.625 C-29.62332031 6.82351562 -30.43414062 7.02203125 -31.26953125 7.2265625 C-31.84058594 7.48179688 -32.41164062 7.73703125 -33 8 C-33.33 8.99 -33.66 9.98 -34 11 C-33.67 8.69 -33.34 6.38 -33 4 C-32.34 4.33 -31.68 4.66 -31 5 C-28.40963512 4.13160537 -25.90619571 3.20503149 -23.375 2.1875 C-6.69430584 -4.46287056 -6.69430584 -4.46287056 0 0 Z " fill="#EDC18C" transform="translate(81,13)"/>
<path d="M0 0 C0 0.99 0 1.98 0 3 C-9.28513118 10.02375246 -21.24990209 17.40253739 -33 18 C-34.33521381 18.17360332 -35.66877745 18.36055806 -37 18.5625 C-38.485 18.7790625 -38.485 18.7790625 -40 19 C-37.51552403 17.34368268 -35.82771755 16.48566719 -33.078125 15.5546875 C-31.92086914 15.15189575 -31.92086914 15.15189575 -30.74023438 14.7409668 C-29.91845703 14.45519775 -29.09667969 14.16942871 -28.25 13.875 C-18.25434872 10.3082656 -8.84746598 5.89831065 0 0 Z " fill="#74C0E9" transform="translate(127,74)"/>
<path d="M0 0 C0.33 0 0.66 0 1 0 C1 1.65 1 3.3 1 5 C2.65 5 4.3 5 6 5 C6.33 5.99 6.66 6.98 7 8 C6.32904297 8.63615234 6.32904297 8.63615234 5.64453125 9.28515625 C1.55048098 13.25699606 -1.813901 17.26912573 -5 22 C-5.33 21.01 -5.66 20.02 -6 19 C-6.99 19.33 -7.98 19.66 -9 20 C-7.53438126 16.60312324 -5.63352456 14.39277314 -3 11.8125 C-2.29875 11.11769531 -1.5975 10.42289063 -0.875 9.70703125 C1 8 1 8 3 7 C2.01 6.67 1.02 6.34 0 6 C0 4.02 0 2.04 0 0 Z " fill="#49AEE4" transform="translate(20,34)"/>
<path d="M0 0 C0 0.66 0 1.32 0 2 C-3.41084768 3.20469568 -6.82943733 4.38570092 -10.25 5.5625 C-11.70212891 6.07586914 -11.70212891 6.07586914 -13.18359375 6.59960938 C-14.58544922 7.07817383 -14.58544922 7.07817383 -16.015625 7.56640625 C-17.30388184 8.01415405 -17.30388184 8.01415405 -18.61816406 8.47094727 C-21.16586928 9.03684284 -22.56315454 8.85092276 -25 8 C-24.67 7.34 -24.34 6.68 -24 6 C-21.67843403 5.59270772 -19.3431213 5.25561323 -17 5 C-17 4.34 -17 3.68 -17 3 C-16.24074219 2.86722656 -15.48148438 2.73445313 -14.69921875 2.59765625 C-13.70535156 2.42105469 -12.71148437 2.24445313 -11.6875 2.0625 C-10.70136719 1.88847656 -9.71523437 1.71445313 -8.69921875 1.53515625 C-0.95620438 0 -0.95620438 0 0 0 Z " fill="#45ABE3" transform="translate(100,90)"/>
<path d="M0 0 C1.67739258 0.00966797 1.67739258 0.00966797 3.38867188 0.01953125 C5.13954102 0.04466797 5.13954102 0.04466797 6.92578125 0.0703125 C8.69405273 0.08384766 8.69405273 0.08384766 10.49804688 0.09765625 C13.41166151 0.12124827 16.32487017 0.1541671 19.23828125 0.1953125 C18.90828125 0.8553125 18.57828125 1.5153125 18.23828125 2.1953125 C17.56772705 2.19942139 16.89717285 2.20353027 16.20629883 2.20776367 C13.15357734 2.24075893 10.10283595 2.3114087 7.05078125 2.3828125 C5.46813477 2.39151367 5.46813477 2.39151367 3.85351562 2.40039062 C-2.68062669 2.42068025 -2.68062669 2.42068025 -8 5.74609375 C-8.58136719 6.55433594 -9.16273437 7.36257812 -9.76171875 8.1953125 C-9.44921875 5.3203125 -9.44921875 5.3203125 -8.76171875 2.1953125 C-5.31537993 -0.10224672 -4.05103484 -0.04112726 0 0 Z " fill="#AFDB8F" transform="translate(46.76171875,76.8046875)"/>
<path d="M0 0 C0.33 0.66 0.66 1.32 1 2 C1.66 2 2.32 2 3 2 C-0.68907545 10.53702278 -9.27760794 16.34465727 -17 21 C-15.54169474 17.48610488 -13.68386118 15.69252004 -10.75 13.3125 C-6.18114818 9.393178 -3.04668511 5.16144301 0 0 Z " fill="#F3C58F" transform="translate(137,54)"/>
<path d="M0 0 C1.65 1.65 3.3 3.3 5 5 C3.75037104 9.4778371 2.25851406 12.64274309 -1 16 C-1.99 16 -2.98 16 -4 16 C-3.31092878 12.34056353 -2.43178734 8.77558041 -1.4375 5.1875 C-1.16808594 4.21167969 -0.89867187 3.23585937 -0.62109375 2.23046875 C-0.41613281 1.49441406 -0.21117187 0.75835937 0 0 Z " fill="#EE9E43" transform="translate(142,40)"/>
<path d="M0 0 C0.33 0 0.66 0 1 0 C1 1.65 1 3.3 1 5 C2.65 5 4.3 5 6 5 C6.33 5.99 6.66 6.98 7 8 C2.25 12 2.25 12 0 12 C-1.34882408 12.63474075 -2.6846659 13.29848848 -4 14 C0.75 8.125 0.75 8.125 3 7 C2.01 6.67 1.02 6.34 0 6 C0 4.02 0 2.04 0 0 Z " fill="#72C0E9" transform="translate(20,34)"/>
<path d="M0 0 C0 0.99 0 1.98 0 3 C-2.40625 4.82421875 -2.40625 4.82421875 -5.5 6.6875 C-7.03140625 7.62142578 -7.03140625 7.62142578 -8.59375 8.57421875 C-9.3878125 9.04472656 -10.181875 9.51523438 -11 10 C-11.99 9.34 -12.98 8.68 -14 8 C-9.38 5.36 -4.76 2.72 0 0 Z " fill="#B7DEF2" transform="translate(127,74)"/>
<path d="M0 0 C-4.76307437 0.95261487 -9.1666528 1.08333357 -14 1 C-13.01 0.67 -12.02 0.34 -11 0 C-11 -0.66 -11 -1.32 -11 -2 C-6.3657546 -3.48957888 -4.01235915 -2.6749061 0 0 Z " fill="#F0B065" transform="translate(81,13)"/>
<path d="M0 0 C-1.7015625 0.4021875 -1.7015625 0.4021875 -3.4375 0.8125 C-4.613125 1.204375 -5.78875 1.59625 -7 2 C-7.33 2.99 -7.66 3.98 -8 5 C-8.66 4.67 -9.32 4.34 -10 4 C-9.67 3.34 -9.34 2.68 -9 2 C-11.64 2 -14.28 2 -17 2 C-17 1.67 -17 1.34 -17 1 C-14.91835982 0.63601378 -12.83459438 0.28416713 -10.75 -0.0625 C-9.00976562 -0.35833984 -9.00976562 -0.35833984 -7.234375 -0.66015625 C-4.37477376 -0.9606216 -2.66674071 -0.9439206 0 0 Z " fill="#7DC5EB" transform="translate(83,95)"/>
<path d="M0 0 C1.65 1.65 3.3 3.3 5 5 C4.34 6.32 3.68 7.64 3 9 C2.34 8.34 1.68 7.68 1 7 C0.01 7.99 -0.98 8.98 -2 10 C-1.34 6.7 -0.68 3.4 0 0 Z " fill="#F3BD80" transform="translate(142,40)"/>
<path d="M0 0 C0 0.99 0 1.98 0 3 C-2.31 3.33 -4.62 3.66 -7 4 C-7 3.01 -7 2.02 -7 1 C-4.50935112 0.31292445 -2.62113708 0 0 0 Z " fill="#31A3E1" transform="translate(83,95)"/>
<path d="M0 0 C3.125 -0.1875 3.125 -0.1875 6 0 C5.67 0.99 5.34 1.98 5 3 C2.69 3 0.38 3 -2 3 C-1.34 2.01 -0.68 1.02 0 0 Z " fill="#EB8411" transform="translate(108,8)"/>
</svg>
